<?xml version="1.0" encoding="UTF-8"?>
<svg id="Layer_2" data-name="Layer 2" xmlns="http://www.w3.org/2000/svg" viewBox="0 0 682.5 435.08">
  <defs>
    <style>
      .cls-1 {
        fill: #58db93;
      }

      .cls-2 {
        fill: #fff388;
      }

      .cls-3 {
        fill: #c0f9f7;
      }
    </style>
  </defs>
  <g id="Layer_1-2" data-name="Layer 1">
    <g>
      <path class="cls-3" d="M53.89,324.06c34.18,0,62.93,18.14,71.42,42.79.84-.03,1.72-.04,2.58-.04,3.49,0,6.89.24,10.18.68,10.43-22.08,37.56-37.83,69.39-37.83,34.18,0,62.93,18.14,71.42,42.79.84-.03,1.72-.04,2.58-.04,12.71,0,24.29,3.09,32.99,8.16,13.34-15.16,35.65-25.1,60.95-25.1,19.81,0,37.78,6.1,51.06,16.02,7.49-2.97,16.32-4.69,25.79-4.69,2.08,0,4.13.08,6.15.24,8.41-24.76,37.23-43,71.5-43s62.93,18.14,71.42,42.79c.84-.03,1.72-.04,2.58-.04,14.39,0,27.34,3.96,36.29,10.27,8.94-13.04,24.07-23.08,42.32-27.72V0H0v342.31c13.49-11.23,32.64-18.24,53.89-18.24Z"/>
      <path class="cls-1" d="M0,435.08h11.5c-4.84-1.43-8.72-2.96-11.5-4.57v4.57Z"/>
      <path class="cls-1" d="M80.91,403.59c0-17.22,21.89-31.17,48.9-31.17,2.08,0,4.13.08,6.15.24.6-1.76,1.31-3.48,2.11-5.17-3.28-.44-6.69-.68-10.18-.68-.86,0-1.73.01-2.58.04-8.49-24.65-37.24-42.79-71.42-42.79-21.25,0-40.4,7.02-53.89,18.24v76.3c11.56-6.7,42.09-12,80.94-14.07-.03-.31-.03-.63-.03-.95Z"/>
      <path class="cls-1" d="M248.88,430.36c-.03-.31-.03-.63-.03-.95,0-17.22,21.89-31.17,48.9-31.17,2.08,0,4.13.08,6.15.24,2.2-6.49,5.82-12.52,10.55-17.9-8.7-5.07-20.28-8.16-32.99-8.16-.86,0-1.73.01-2.58.04-8.49-24.65-37.24-42.79-71.42-42.79-31.84,0-58.96,15.75-69.39,37.83-.8,1.69-1.51,3.41-2.11,5.17-2.02-.16-4.07-.24-6.15-.24-27.01,0-48.9,13.95-48.9,31.17,0,.32,0,.64.03.95-38.85,2.07-69.38,7.37-80.94,14.07v11.89c2.78,1.61,6.66,3.15,11.5,4.57h190.18c13.3-2.13,29.37-3.77,47.2-4.72Z"/>
      <path class="cls-1" d="M449.39,398.24c27.01,0,48.91,13.95,48.91,31.17,0,.59-.03,1.17-.08,1.74,2.81.21,5.57.44,8.27.68,14.89-4.94,40.89-8.74,72.37-10.42-.03-.31-.03-.63-.03-.95,0-17.22,21.89-31.17,48.9-31.17,2.08,0,4.13.08,6.15.24,1.49-4.37,3.62-8.54,6.3-12.44-8.95-6.31-21.89-10.27-36.29-10.27-.86,0-1.73.01-2.58.04-8.49-24.65-37.24-42.79-71.42-42.79s-63.09,18.24-71.5,43c-2.02-.16-4.07-.24-6.15-.24-9.47,0-18.3,1.72-25.79,4.69,9.63,7.2,16.79,16.41,20.36,26.77.84-.03,1.72-.04,2.58-.04Z"/>
      <path class="cls-1" d="M498.22,431.15c.05-.58.08-1.16.08-1.74,0-17.22-21.9-31.17-48.91-31.17-.86,0-1.73.01-2.58.04-3.57-10.37-10.73-19.57-20.36-26.77-13.28-9.92-31.25-16.02-51.06-16.02-25.29,0-47.61,9.94-60.95,25.1-4.74,5.38-8.35,11.41-10.55,17.9-2.02-.16-4.07-.24-6.15-.24-27.01,0-48.9,13.95-48.9,31.17,0,.32,0,.64.03.95-17.83.95-33.9,2.59-47.2,4.72h296.98c2.09-1.13,4.71-2.21,7.83-3.25-2.7-.24-5.46-.47-8.27-.68Z"/>
      <path class="cls-1" d="M640.18,377.09c-2.68,3.9-4.81,8.07-6.3,12.44-2.02-.16-4.07-.24-6.15-.24-27.01,0-48.9,13.95-48.9,31.17,0,.32,0,.64.03.95-31.47,1.68-57.48,5.48-72.37,10.42-3.12,1.04-5.74,2.12-7.83,3.25h183.84v-85.71c-18.25,4.64-33.38,14.68-42.32,27.72Z"/>
    </g>
    <circle class="cls-2" cx="80.01" cy="74.76" r="40.18"/>
  </g>
</svg>